# xmcd CD database file
#
# Track frame offsets:
#	150
#	16050
#	33580
#
# Disc length: 658 seconds
#
# Revision: 0
# Processed by: cddbd v1.5.1PL0 Copyright (c) Steve Scherf et al.
# Submitted via: CDex 1.51
#
DISCID=18029003
DTITLE=TOKIO - うわさのキッス
DYEAR=1995
DGENRE=JPop
TTITLE0=うわさのキッス
TTITLE1=哀しみのBeliever
TTITLE2=うわさのキッス(カラオケ)
EXTD=YEAR: 1995
EXTT0=
EXTT1=
EXTT2=
PLAYORDER=
